<?xml version="1.0" encoding="UTF-8" standalone="no"?>
<svg
   width="1035.7999"
   height="240"
   viewBox="0 0 1035.7999 240"
   version="1.1"
   id="svg17"
   sodipodi:docname="opp_env_logo.svg"
   inkscape:version="1.4.2 (ebf0e940d0, 2025-05-08)"
   xmlns:inkscape="http://www.inkscape.org/namespaces/inkscape"
   xmlns:sodipodi="http://sodipodi.sourceforge.net/DTD/sodipodi-0.dtd"
   xmlns:xlink="http://www.w3.org/1999/xlink"
   xmlns="http://www.w3.org/2000/svg"
   xmlns:svg="http://www.w3.org/2000/svg">
  <sodipodi:namedview
     id="namedview17"
     pagecolor="#ffffff"
     bordercolor="#cccccc"
     borderopacity="1"
     inkscape:showpageshadow="0"
     inkscape:pageopacity="1"
     inkscape:pagecheckerboard="0"
     inkscape:deskcolor="#d1d1d1"
     inkscape:zoom="0.69786903"
     inkscape:cx="627.62493"
     inkscape:cy="361.09927"
     inkscape:window-width="1720"
     inkscape:window-height="720"
     inkscape:window-x="0"
     inkscape:window-y="0"
     inkscape:window-maximized="0"
     inkscape:current-layer="g16" />
  <defs
     id="defs6">
    <linearGradient
       id="linearGradient41"
       inkscape:collect="always">
      <stop
         style="stop-color:#35bdd4;stop-opacity:1;"
         offset="0"
         id="stop40" />
      <stop
         style="stop-color:#2cafc0;stop-opacity:0.93582886;"
         offset="1"
         id="stop41" />
    </linearGradient>
    <linearGradient
       id="linearGradient38"
       inkscape:collect="always">
      <stop
         style="stop-color:#9d35d4;stop-opacity:1;"
         offset="0.4041298"
         id="stop38" />
      <stop
         style="stop-color:#35ccd4;stop-opacity:0.99465239;"
         offset="1"
         id="stop39" />
    </linearGradient>
    <linearGradient
       id="linearGradient28"
       inkscape:collect="always">
      <stop
         style="stop-color:#af62ff;stop-opacity:1;"
         offset="0"
         id="stop28" />
      <stop
         style="stop-color:#6cc7d2;stop-opacity:0;"
         offset="1"
         id="stop29" />
    </linearGradient>
    <linearGradient
       id="linearGradient25"
       x1="0"
       y1="0"
       x2="1"
       y2="0">
      <stop
         offset="0"
         stop-color="#6a35c6"
         id="stop24"
         style="stop-color:#744bcf;stop-opacity:1;" />
      <stop
         offset="1"
         stop-color="#10b4b3"
         id="stop25"
         style="stop-color:#10b4b0;stop-opacity:1;" />
    </linearGradient>
    <linearGradient
       id="linearGradient23"
       x1="0"
       y1="0"
       x2="1"
       y2="0">
      <stop
         offset="0.70601851"
         stop-color="#6a35c6"
         id="stop22" />
      <stop
         offset="1"
         stop-color="#10b4b3"
         id="stop23" />
    </linearGradient>
    <marker
       style="overflow:visible"
       id="marker20"
       refX="0"
       refY="0"
       orient="auto-start-reverse"
       inkscape:stockid="Triangle arrow"
       markerWidth="0.40000001"
       markerHeight="0.40000001"
       viewBox="0 0 1 1"
       inkscape:isstock="true"
       inkscape:collect="always"
       preserveAspectRatio="xMidYMid">
      <path
         transform="scale(0.5)"
         style="fill:context-stroke;fill-rule:evenodd;stroke:context-stroke;stroke-width:1pt"
         d="M 5.77,0 -2.88,5 V -5 Z"
         id="path20" />
    </marker>
    <marker
       style="overflow:visible"
       id="Triangle"
       refX="0"
       refY="0"
       orient="auto-start-reverse"
       inkscape:stockid="Triangle arrow"
       markerWidth="0.40000001"
       markerHeight="0.40000001"
       viewBox="0 0 1 1"
       inkscape:isstock="true"
       inkscape:collect="always"
       preserveAspectRatio="xMidYMid">
      <path
         transform="scale(0.5)"
         style="fill:context-stroke;fill-rule:evenodd;stroke:context-stroke;stroke-width:1pt"
         d="M 5.77,0 -2.88,5 V -5 Z"
         id="path135" />
    </marker>
    <!-- Accent gradient closely matching artwork -->
    <linearGradient
       id="accent"
       x1="0"
       y1="0"
       x2="1"
       y2="0">
      <stop
         offset="0%"
         stop-color="#6a35c6"
         id="stop1" />
      <stop
         offset="100%"
         stop-color="#10b4b3"
         id="stop2" />
    </linearGradient>
    <!-- Subtle drop shadow -->
    <filter
       id="shadow"
       x="-0.096"
       y="-0.12"
       width="1.192"
       height="1.2816667">
      <feOffset
         dx="0"
         dy="10"
         in="SourceAlpha"
         result="off"
         id="feOffset2" />
      <feGaussianBlur
         in="off"
         stdDeviation="12"
         result="blur"
         id="feGaussianBlur2" />
      <feColorMatrix
         in="blur"
         type="matrix"
         values="0 0 0 0 0                 0 0 0 0 0                 0 0 0 0 0                 0 0 0 0.25 0"
         result="shadow"
         id="feColorMatrix2" />
      <feBlend
         in="SourceGraphic"
         in2="shadow"
         mode="normal"
         id="feBlend2" />
    </filter>
    <!-- Window body gradient (very subtle vertical) -->
    <linearGradient
       id="bodyGrad"
       x1="0"
       y1="0"
       x2="0"
       y2="268.32816"
       gradientTransform="matrix(1.118034,0,0,0.89442719,-187.71431,-252.19632)"
       gradientUnits="userSpaceOnUse">
      <stop
         offset="0%"
         stop-color="#2f333a"
         id="stop3" />
      <stop
         offset="100%"
         stop-color="#2a2e35"
         id="stop4" />
    </linearGradient>
    <!-- Title bar gradient -->
    <linearGradient
       id="titleGrad"
       x1="0"
       y1="0"
       x2="0"
       y2="127.27922"
       gradientTransform="scale(2.3570226,0.42426407)"
       gradientUnits="userSpaceOnUse">
      <stop
         offset="0%"
         stop-color="#3b4048"
         id="stop5" />
      <stop
         offset="100%"
         stop-color="#343941"
         id="stop6" />
    </linearGradient>
    <style
       id="style6">
      .stroke { stroke:url(#accent); stroke-width:20; stroke-linecap:round; stroke-linejoin:round; fill:none; }
      .thin  { stroke:url(#accent); stroke-width:16; stroke-linecap:round; stroke-linejoin:round; fill:none; }
    </style>
    <linearGradient
       inkscape:collect="always"
       xlink:href="#linearGradient25"
       id="linearGradient19"
       x1="159.79987"
       y1="83.704697"
       x2="239.69981"
       y2="83.704697"
       gradientTransform="matrix(1.9366282,0,0,0.9886541,-370.00697,-209.29403)"
       gradientUnits="userSpaceOnUse" />
    <linearGradient
       inkscape:collect="always"
       xlink:href="#accent"
       id="linearGradient20"
       x1="56.360847"
       y1="108.58602"
       x2="120.23498"
       y2="108.58602"
       gradientTransform="scale(1.0645688,0.93934748)"
       gradientUnits="userSpaceOnUse" />
    <linearGradient
       inkscape:collect="always"
       xlink:href="#linearGradient23"
       id="linearGradient22"
       gradientUnits="userSpaceOnUse"
       gradientTransform="matrix(2.0285533,0,0,0.81103325,-442.7527,-212.12741)"
       x1="159.79987"
       y1="83.704697"
       x2="239.69981"
       y2="83.704697" />
    <linearGradient
       inkscape:collect="always"
       xlink:href="#linearGradient28"
       id="linearGradient29"
       x1="566"
       y1="443.52499"
       x2="1245.7999"
       y2="443.52499"
       gradientUnits="userSpaceOnUse" />
    <linearGradient
       inkscape:collect="always"
       xlink:href="#linearGradient41"
       id="linearGradient40"
       x1="975.30005"
       y1="429.57501"
       x2="1245.7999"
       y2="429.57501"
       gradientUnits="userSpaceOnUse" />
    <linearGradient
       inkscape:collect="always"
       xlink:href="#linearGradient38"
       id="linearGradient42"
       gradientUnits="userSpaceOnUse"
       x1="566"
       y1="443.52499"
       x2="958.10016"
       y2="443.52499" />
  </defs>
  <!-- Transparent background -->
  <rect
     x="-22.28569"
     y="-57.80368"
     width="1600"
     height="900"
     fill="none"
     id="rect6" />
  <!-- Terminal icon -->
  <g
     transform="translate(187.71431,252.19632)"
     filter="url(#shadow)"
     id="g16">
    <!-- Body -->
    <rect
       x="-187.71431"
       y="-252.19632"
       width="300"
       height="240"
       rx="28"
       fill="url(#bodyGrad)"
       id="rect7"
       style="fill:url(#bodyGrad)" />
    <!-- Title bar (macOS style) -->
    <clipPath
       id="rclip">
      <rect
         x="0"
         y="0"
         width="300"
         height="240"
         rx="28"
         id="rect8" />
    </clipPath>
    <g
       clip-path="url(#rclip)"
       id="g10"
       transform="translate(-187.71431,-252.19632)">
      <rect
         x="0"
         y="0"
         width="300"
         height="54"
         fill="url(#titleGrad)"
         id="rect9"
         style="fill:url(#titleGrad)" />
      <rect
         x="0"
         y="54"
         width="300"
         height="2"
         fill="#ffffff"
         opacity="0.16"
         id="rect10"
         style="stroke:#ffffff;stroke-opacity:1" />
    </g>
    <!-- Traffic lights -->
    <circle
       cx="-157.71431"
       cy="-224.19632"
       r="8"
       fill="#ff5f57"
       id="circle10" />
    <circle
       cx="-131.71431"
       cy="-224.19632"
       r="8"
       fill="#ffbd2e"
       id="circle11" />
    <circle
       cx="-105.7143"
       cy="-224.19632"
       r="8"
       fill="#28c840"
       id="circle12" />
    <!-- Glyphs: >  U  with two up-arrows -->
    <!-- '>' -->
    <polyline
       points="70,112 118,132 70,152"
       class="stroke"
       id="polyline12"
       style="stroke:url(#linearGradient20);stroke-width:16.7712;stroke-dasharray:none"
       transform="matrix(0.91989389,0,0,1.5459515,-203.74681,-315.40927)" />
    <!-- U glyph (bucket) -->
    <path
       d="m 18.760705,-87.325708 -0.56731,-66.730782"
       class="stroke"
       id="path21"
       style="display:inline;stroke:url(#linearGradient22);stroke-linecap:square;marker-end:url(#marker20);paint-order:normal"
       sodipodi:nodetypes="cc" />
    <path
       d="m -40.173955,-117.13507 v 34.435012 25.75044 h 114.01636 v -53.375322 l -0.54161,-28.70154"
       class="stroke"
       id="path12"
       style="display:inline;stroke:url(#linearGradient19);marker-start:url(#Triangle);marker-end:url(#marker20)"
       sodipodi:nodetypes="cccccc" />
    <!-- Left up arrow shaft -->
    <!-- Left arrow head -->
    <!-- Right up arrow shaft -->
    <!-- Right arrow head -->
  </g>
  <!-- Wordmark (kept as real text; can convert to outlines on request) -->
  <g
     id="text17"
     style="font-weight:700;font-size:150px;font-family:Poppins, Montserrat, Inter, system-ui, '-apple-system', Arial, sans-serif;letter-spacing:1;fill:url(#linearGradient29)"
     aria-label="opp_env"
     transform="translate(-210,-310)">
    <path
       style="fill:url(#linearGradient42);fill-opacity:1"
       d="m 588.65,429.65 q 0,9.9 5.55,16.2 5.7,6.15 14.4,6.15 8.85,0 14.4,-6.15 5.7,-6.3 5.7,-16.2 0,-9.9 -5.7,-16.2 -5.55,-6.3 -14.4,-6.3 -8.7,0 -14.4,6.3 -5.55,6.3 -5.55,16.2 z m 62.7,0 q 0,17.55 -12.15,29.55 -12.15,12 -30.6,12 -18.3,0 -30.45,-12 -12.15,-12 -12.15,-29.55 0,-17.55 12.15,-29.55 12.15,-12.15 30.45,-12.15 18.45,0 30.6,12.15 12.15,12 12.15,29.55 z m 64.60002,-41.7 q 14.1,0 25.05,11.85 11.1,11.7 11.1,29.55 0,17.85 -11.1,29.85 -10.95,12 -25.8,12 -14.7,0 -23.7,-11.85 v 39.75 h -22.5 V 389.3 h 22.5 v 9 q 10.35,-10.35 24.45,-10.35 z m -24.75,41.85 q 0,9.75 5.4,16.05 5.55,6.15 13.35,6.15 7.8,0 13.65,-6.15 5.85,-6.3 5.85,-16.05 0,-9.75 -5.7,-16.35 -5.7,-6.6 -13.65,-6.6 -7.95,0 -13.5,6.6 -5.4,6.45 -5.4,16.35 z m 125.65006,-41.85 q 14.1,0 25.05,11.85 11.1,11.7 11.1,29.55 0,17.85 -11.1,29.85 -10.95,12 -25.8,12 -14.7,0 -23.7,-11.85 v 39.75 h -22.5 V 389.3 h 22.5 v 9 q 10.35,-10.35 24.45,-10.35 z m -24.75,41.85 q 0,9.75 5.4,16.05 5.55,6.15 13.35,6.15 7.8,0 13.65,-6.15 5.85,-6.3 5.85,-16.05 0,-9.75 -5.7,-16.35 -5.7,-6.6 -13.65,-6.6 -7.95,0 -13.5,6.6 -5.4,6.45 -5.4,16.35 z m 78.10007,60 v -13.05 h 87.9 v 13.05 z"
       id="path25" />
    <path
       style="fill:url(#linearGradient40);fill-opacity:1"
       d="m 1049.7,458.3 q -13.65,12.9 -32.1,12.9 -18.29998,0 -30.29998,-11.25 -12,-11.4 -12,-30.45 0,-19.05 12.15,-30.3 12.3,-11.25 28.94998,-11.25 16.65,0 28.2,10.05 11.7,10.05 11.7,27.6 v 12 h -58.79998 q 1.05,6.6 6.89998,10.8 5.85,4.2 13.2,4.2 11.85,0 19.5,-7.95 z m -16.2,-36.75 q -0.75,-7.2 -5.4,-11.1 -4.65,-3.9 -11.4,-3.9 -6.6,0 -12.15,4.05 -5.54998,4.05 -6.44998,10.95 z M 1096,425 v 45 h -22.5 v -80.7 h 22.5 v 9 q 10.2,-10.35 22.95,-10.35 12.75,0 21.3,9 8.7,9 8.7,24 V 470 h -22.5 v -45.6 q 0,-18.6 -13.65,-18.6 -6.75,0 -11.85,4.95 -4.95,4.8 -4.95,14.25 z m 94.7499,45 -31.95,-80.85 h 23.4 l 20.1,50.85 20.1,-50.85 h 23.4 l -31.95,80.85 z"
       id="path26" />
  </g>
</svg>
